<svg fill="none" xmlns="http://www.w3.org/2000/svg" viewBox="91.97 20.35 237.93 207.75">
<path fill-rule="evenodd" clip-rule="evenodd" d="M206.561 191.826C167.02 221.056 120.069 224.661 100.538 199.512C80.5522 173.777 96.849 127.676 136.938 96.5422C171.844 69.4346 213.278 62.6122 236.602 78.2888C249.823 81.8234 263.503 87.9975 276.531 96.7859C318.61 125.172 337.95 170.082 319.728 197.095C301.505 224.108 252.621 222.995 210.541 194.609C209.191 193.698 207.864 192.77 206.561 191.826Z" fill="url(#paint0_linear_346_43049)"/>
<path d="M275.476 22.8109C276.31 25.5253 277.092 34.4515 276.519 34.4515C276.31 34.4515 275.06 33.7207 273.809 32.8333C272.506 31.9459 271.307 31.3195 271.151 31.4761C270.995 31.6327 271.62 32.8333 272.506 34.0861C275.164 37.9489 276.362 41.6029 276.05 44.8393C275.737 47.5537 275.893 47.8669 279.177 53.7133C289.652 72.3487 287.932 68.0161 294.967 94.7425C298.459 107.949 301.638 120.268 302.055 122.147C303.827 129.769 304.348 131.021 305.651 131.021C306.328 131.021 307.475 130.813 308.205 130.552L309.455 130.03L302.211 101.424C298.199 85.7119 293.196 64.9885 291.059 55.4359L287.15 38.0011L283.711 32.4679C279.385 25.4731 275.789 20.3575 275.164 20.3575C274.903 20.3575 275.06 21.4537 275.476 22.8109Z" fill="#606280"/>
<path d="M148.421 47.2403C147.952 48.9629 142.532 68.1203 136.278 89.7833C130.077 111.446 124.084 132.326 122.989 136.137C121.895 139.947 120.905 143.236 120.748 143.34C120.592 143.497 119.498 143.132 118.299 142.505C115.745 141.2 115.016 141.566 115.276 144.123C115.433 145.846 115.485 145.898 118.559 146.264C120.696 146.577 122.52 147.203 124.605 148.508C128.253 150.753 130.598 150.909 132.787 149.03C134.611 147.516 135.393 144.959 134.454 143.81C133.621 142.818 131.692 142.818 129.868 143.758C129.087 144.123 127.94 144.645 127.263 144.854C126.22 145.167 126.116 145.063 126.377 143.967C126.481 143.288 127.575 138.642 128.774 133.631C130.859 124.914 132.161 119.381 134.454 109.619C135.028 107.166 136.07 102.729 136.748 99.7013C137.425 96.6737 140.604 83.2061 143.835 69.7385C147.014 56.3231 149.516 45.0479 149.411 44.7347C149.307 44.4215 148.89 45.5699 148.421 47.2403Z" fill="#606280"/>
<path d="M196.556 88.2653C195.343 90.8612 190.347 95.7125 189 96.7941C206.374 89.6553 228.879 93.9439 236.96 98L235.949 88.2653L239.485 84.2092V77.7194L241 72.8521H239.485C234.232 72.8521 231.236 63.6582 230.394 59.0613C222.818 52.5715 212.212 63.1174 205.646 67.1735C199.081 71.2296 198.071 85.0204 196.556 88.2653Z" fill="#606280"/>
<path d="M203.611 126.168C201.631 126.69 203.142 127.577 205.904 127.525C208.875 127.525 210.542 127.055 210.542 126.272C210.542 125.803 205.331 125.698 203.611 126.168Z" fill="#606280"/>
<path d="M245.876 141.566C246.136 146.63 246.658 148.613 248.69 151.589C250.67 154.616 251.192 157.696 250.618 162.603C250.045 167.144 246.71 174.296 241.133 182.752C235.661 191.156 235.036 192.566 234.515 197.681C233.994 202.588 232.795 205.511 230.137 208.278C226.645 211.984 225.603 212.663 222.164 213.55C219.089 214.333 218.88 214.437 220.548 214.49C223.988 214.594 237.537 217.1 243.114 218.718C246.084 219.605 251.556 221.38 255.204 222.685C267.503 227.07 270.422 227.644 282.46 227.957C291.997 228.218 293.874 228.114 299.919 227.07C315.032 224.46 321.234 221.171 323.579 214.49C324.152 212.976 324.778 211.723 325.038 211.775C325.247 211.827 325.664 212.558 325.924 213.446C326.185 214.333 326.55 215.064 326.81 215.064C327.436 215.064 329.885 211.932 329.885 211.097C329.885 210.627 329.26 207.912 328.53 204.989C327.227 199.874 327.175 198.986 327.071 183.744C326.966 170.015 326.81 166.831 325.768 160.515C325.142 156.495 324.413 152.998 324.152 152.737C323.944 152.528 323.475 153.677 323.11 155.347C322.016 160.828 320.4 166.518 319.931 166.518C319.201 166.518 318.576 164.743 316.596 157.487C315.658 153.781 314.72 150.649 314.615 150.545C314.511 150.388 313.26 150.545 311.905 150.858C308.935 151.536 307.997 151.275 307.997 149.814C307.997 147.882 306.173 148.613 305.13 150.962C303.671 154.251 299.867 157.8 296.219 159.21C293.926 160.097 291.997 160.41 288.454 160.463C282.252 160.515 279.438 159.21 274.07 153.677C269.119 148.613 264.377 144.75 259.791 142.088C255.882 139.844 250.045 137.808 247.335 137.808H245.667L245.876 141.566Z" fill="#606280"/>
<path d="M155.092 143.341C151.392 144.228 149.411 145.429 144.669 149.553C137.112 156.13 136.487 156.547 132.734 157.748C128.565 159.053 128.096 159.418 128.565 161.193C128.878 162.446 127.836 165.474 127.106 165.474C126.845 165.474 126.637 165.943 126.637 166.57C126.637 167.196 125.96 168.345 125.074 169.128C123.719 170.433 123.51 170.955 123.51 173.565C123.51 175.183 123.145 177.166 122.728 178.002C121.999 179.463 119.602 181.134 118.299 181.134C117.569 181.134 117.673 178.785 118.507 175.496L119.237 172.729L117.882 172.207C117.1 171.894 115.745 171.529 114.859 171.372L113.244 171.111L112.566 174.556C112.201 176.436 111.784 178.002 111.576 178.002C111.367 178.002 110.95 180.037 110.638 182.543C110.325 185.101 109.543 189.329 108.866 192.043C107.459 198.099 107.771 200.291 110.325 201.492C111.628 202.118 112.097 202.692 112.358 204.102C112.514 205.093 113.191 208.852 113.921 212.401C114.599 215.951 115.172 219.396 115.172 219.97C115.172 221.902 116.006 222.424 121.269 223.938C129.191 226.13 134.715 226.756 145.659 226.809C156.603 226.809 157.645 226.6 170.622 222.319C174.114 221.171 179.481 219.501 182.608 218.665C188.185 217.099 201.37 214.594 204.497 214.489C205.435 214.437 204.757 214.176 202.725 213.811C198.868 213.132 191.676 209.374 187.768 205.981C183.859 202.588 183.234 200.5 183.182 191.313C183.182 181.76 182.921 181.134 176.876 176.958L172.759 174.034L172.602 171.216C172.498 169.545 172.915 166.309 173.54 163.438C174.895 157.539 174.687 155.295 172.185 149.866C171.195 147.726 170.413 145.377 170.413 144.594C170.413 143.289 170.205 143.132 168.016 142.819C164.16 142.297 158.427 142.506 155.092 143.341Z" fill="#606280"/>
<path d="M203.5 119.15C202.7 119.55 199.833 122.65 198.5 124.15L194 106.65L197 102.15L199 96.6503C205 91.8503 216.833 94.6503 222 96.6503L221.5 111.15L223 115.15L217.5 122.649C215.5 118.649 212 118.316 210.5 118.649C209.833 119.15 208.2 120.15 207 120.15C205.5 120.15 204.5 118.65 203.5 119.15Z" fill="#D9D9D9"/>
<path d="M204.549 92.7594C199.911 93.177 189.749 95.1606 182.244 97.0398C176.563 98.5014 172.707 99.18 168.746 99.3888C161.137 99.8064 157.385 101.372 155.561 104.922C152.33 111.343 157.073 122.618 164.056 124.967C165.411 125.437 167.704 125.959 169.215 126.167C171.873 126.481 181.202 125.489 182.348 124.81C182.661 124.601 183.391 122.096 183.964 119.277C185.162 113.274 187.82 104.452 189.175 101.79C191.416 97.4052 195.012 96.1002 206.113 95.6826C217.057 95.265 220.757 96.3612 227.167 101.738C230.815 104.818 233.733 109.359 235.036 114.005C236.6 119.434 238.684 125.228 240.091 127.994C241.186 130.239 241.551 130.552 244.313 131.387C253.693 134.154 260.312 130.135 260.26 121.626C260.26 114.422 257.394 109.359 250.514 104.191C245.72 100.642 240.873 98.2926 230.815 94.743C226.333 93.1248 212.106 92.0808 204.549 92.7594Z" fill="#454966"/>

<defs>
<linearGradient id="paint0_linear_346_43049" x1="111" y1="109.5" x2="314.999" y2="217.001" gradientUnits="userSpaceOnUse">
<stop stop-color="#CED4DA"/>
<stop offset="1" stop-color="white"/>
</linearGradient>
<clipPath id="clip0_346_43049">
<rect width="93" height="24" fill="white" transform="translate(163.5 400)"/>
</clipPath>
</defs>
</svg>